<svg xmlns="http://www.w3.org/2000/svg" viewBox="0 0 512 512" role="img" aria-label="Build The Machine"><defs><filter id="glow" x="-50%" y="-50%" width="200%" height="200%"><feGaussianBlur stdDeviation="7" result="b"/><feMerge><feMergeNode in="b"/><feMergeNode in="SourceGraphic"/></feMerge></filter><linearGradient id="blue" x1="0" y1="0" x2="1" y2="1"><stop offset="0" stop-color="#69b8ff"/><stop offset="1" stop-color="#1687ff"/></linearGradient></defs><rect width="512" height="512" rx="96" fill="#03060d"/><rect x="22" y="22" width="468" height="468" rx="82" fill="none" stroke="#1687ff" stroke-width="5" filter="url(#glow)"/><path d="M104 160h116c48 0 78 24 78 61 0 21-11 38-31 49 26 10 42 28 42 53 0 40-34 65-86 65H104v-58h116c18 0 28-7 28-18s-10-18-28-18H104v-54h116c17 0 26-7 26-18s-9-18-26-18H104z" fill="#f5f7fa"/><path d="M270 348l42-55 33 33 91-78v91l-30 0v-31l-64 54-30-30-20 26z" fill="url(#blue)"/><path d="M335 255l38 39 63-55v-49z" fill="url(#blue)"/></svg>